G04 MADE WITH FRITZING*
G04 WWW.FRITZING.ORG*
G04 DOUBLE SIDED*
G04 HOLES PLATED*
G04 CONTOUR ON CENTER OF CONTOUR VECTOR*
%ASAXBY*%
%FSLAX23Y23*%
%MOIN*%
%OFA0B0*%
%SFA1.0B1.0*%
%ADD10C,0.075000*%
%ADD11C,0.062992*%
%ADD12C,0.074000*%
%ADD13C,0.075433*%
%ADD14C,0.074667*%
%ADD15C,0.074695*%
%ADD16R,0.062992X0.062992*%
%ADD17C,0.032000*%
%LNCOPPER0*%
G90*
G70*
G54D10*
X1702Y708D03*
X2102Y708D03*
X1002Y708D03*
X1402Y708D03*
X302Y708D03*
X702Y708D03*
X1002Y1608D03*
X1402Y1608D03*
X302Y1608D03*
X702Y1608D03*
X1702Y1608D03*
X2102Y1608D03*
G54D11*
X1302Y1006D03*
X1302Y908D03*
X2002Y1006D03*
X2002Y908D03*
X602Y1006D03*
X602Y908D03*
X2002Y1906D03*
X2002Y1808D03*
X1302Y1906D03*
X1302Y1808D03*
X602Y1906D03*
X602Y1808D03*
G54D12*
X902Y1398D03*
X802Y1408D03*
X702Y1398D03*
X602Y1408D03*
X502Y1398D03*
X402Y1408D03*
X1602Y1398D03*
X1502Y1408D03*
X1402Y1398D03*
X1302Y1408D03*
X1202Y1398D03*
X1102Y1408D03*
X2302Y1398D03*
X2202Y1408D03*
X2102Y1398D03*
X2002Y1408D03*
X1902Y1398D03*
X1802Y1408D03*
X902Y498D03*
X802Y508D03*
X702Y498D03*
X602Y508D03*
X502Y498D03*
X402Y508D03*
X1602Y498D03*
X1502Y508D03*
X1402Y498D03*
X1302Y508D03*
X1202Y498D03*
X1102Y508D03*
X2302Y498D03*
X2202Y508D03*
X2102Y498D03*
X2002Y508D03*
X1902Y498D03*
X1802Y508D03*
G54D13*
X1402Y2008D03*
X1702Y1008D03*
X1102Y1908D03*
G54D14*
X402Y2208D03*
X502Y2208D03*
X602Y2208D03*
X702Y2208D03*
G54D15*
X802Y2208D03*
G54D14*
X902Y2208D03*
X1002Y2208D03*
X1102Y2208D03*
X1202Y2208D03*
G54D15*
X1302Y2208D03*
G54D14*
X1402Y2208D03*
G54D15*
X1502Y2208D03*
G54D14*
X1602Y2208D03*
X1702Y2208D03*
X1802Y2208D03*
X1902Y2208D03*
G54D15*
X2002Y2208D03*
G54D14*
X2102Y2208D03*
X2202Y2208D03*
X2302Y2208D03*
X2302Y2308D03*
X2202Y2308D03*
X2102Y2308D03*
G54D15*
X2002Y2308D03*
G54D14*
X1902Y2308D03*
X1802Y2308D03*
X1702Y2308D03*
X1602Y2308D03*
G54D15*
X1502Y2308D03*
G54D14*
X1402Y2308D03*
G54D15*
X1302Y2308D03*
G54D14*
X1202Y2308D03*
X1102Y2308D03*
X1002Y2308D03*
X902Y2308D03*
G54D15*
X802Y2308D03*
G54D14*
X702Y2308D03*
X602Y2308D03*
X502Y2308D03*
X402Y2308D03*
G54D16*
X1302Y1006D03*
X2002Y1006D03*
X602Y1006D03*
X2002Y1906D03*
X1302Y1906D03*
X602Y1906D03*
G54D17*
X2102Y707D02*
X2102Y529D01*
D02*
X2109Y680D02*
X2102Y707D01*
D02*
X1704Y807D02*
X1804Y906D01*
D02*
X1704Y707D02*
X1704Y807D01*
D02*
X1804Y906D02*
X1975Y908D01*
D02*
X1728Y696D02*
X1704Y707D01*
D02*
X1102Y906D02*
X1275Y908D01*
D02*
X1003Y707D02*
X1003Y807D01*
D02*
X1003Y807D02*
X1102Y906D01*
D02*
X1018Y684D02*
X1003Y707D01*
D02*
X401Y906D02*
X575Y908D01*
D02*
X301Y807D02*
X401Y906D01*
D02*
X301Y707D02*
X301Y807D01*
D02*
X284Y686D02*
X301Y707D01*
D02*
X704Y508D02*
X702Y679D01*
D02*
X708Y529D02*
X704Y508D01*
D02*
X1401Y508D02*
X1402Y679D01*
D02*
X1399Y529D02*
X1401Y508D01*
D02*
X704Y1607D02*
X730Y1602D01*
D02*
X702Y1429D02*
X704Y1607D01*
D02*
X600Y1807D02*
X579Y1794D01*
D02*
X301Y1707D02*
X401Y1807D01*
D02*
X401Y1807D02*
X600Y1807D01*
D02*
X302Y1637D02*
X301Y1707D01*
D02*
X1003Y1607D02*
X1003Y1707D01*
D02*
X1102Y1807D02*
X1275Y1808D01*
D02*
X1003Y1707D02*
X1102Y1807D01*
D02*
X1025Y1591D02*
X1003Y1607D01*
D02*
X1704Y1707D02*
X1804Y1807D01*
D02*
X1804Y1807D02*
X1975Y1808D01*
D02*
X1704Y1607D02*
X1704Y1707D01*
D02*
X1730Y1602D02*
X1704Y1607D01*
D02*
X1502Y1607D02*
X1586Y1431D01*
D02*
X1402Y1908D02*
X1503Y1808D01*
D02*
X1329Y1907D02*
X1402Y1908D01*
D02*
X903Y1807D02*
X902Y1429D01*
D02*
X804Y1906D02*
X903Y1807D01*
D02*
X629Y1906D02*
X804Y1906D01*
D02*
X1402Y737D02*
X1402Y1367D01*
D02*
X1401Y1508D02*
X1402Y1579D01*
D02*
X1402Y1429D02*
X1401Y1508D01*
D02*
X2102Y737D02*
X2102Y1367D01*
D02*
X726Y732D02*
X802Y808D01*
D02*
X2102Y1110D02*
X2102Y1579D01*
D02*
X2401Y1209D02*
X2301Y1110D01*
D02*
X2401Y2110D02*
X2401Y1209D01*
D02*
X2326Y2185D02*
X2401Y2110D01*
D02*
X2301Y1110D02*
X2102Y1110D01*
D02*
X302Y1508D02*
X380Y1430D01*
D02*
X202Y2006D02*
X203Y1607D01*
D02*
X203Y1607D02*
X302Y1508D01*
D02*
X301Y2110D02*
X202Y2006D01*
D02*
X401Y2110D02*
X301Y2110D01*
D02*
X478Y2185D02*
X401Y2110D01*
D02*
X1001Y308D02*
X1102Y409D01*
D02*
X500Y309D02*
X1001Y308D01*
D02*
X401Y408D02*
X500Y309D01*
D02*
X402Y477D02*
X401Y408D01*
D02*
X1102Y2008D02*
X1202Y2007D01*
D02*
X926Y2184D02*
X1102Y2008D01*
D02*
X1202Y2007D02*
X1279Y1929D01*
D02*
X1128Y2181D02*
X1302Y2007D01*
D02*
X1302Y2007D02*
X1368Y2008D01*
D02*
X1334Y2208D02*
X1370Y2208D01*
D02*
X1975Y1007D02*
X1731Y1008D01*
D02*
X526Y2184D02*
X603Y2107D01*
D02*
X603Y2107D02*
X902Y2107D01*
D02*
X902Y2107D02*
X1082Y1928D01*
D02*
X371Y508D02*
X202Y508D01*
D02*
X202Y508D02*
X202Y608D01*
D02*
X202Y608D02*
X203Y1207D01*
D02*
X203Y1207D02*
X302Y1310D01*
D02*
X302Y1310D02*
X380Y1386D01*
D02*
X1785Y482D02*
X1602Y208D01*
D02*
X1602Y208D02*
X402Y208D01*
D02*
X402Y208D02*
X203Y407D01*
D02*
X203Y407D02*
X202Y508D01*
D02*
X202Y508D02*
X371Y508D01*
D02*
X1233Y501D02*
X1271Y505D01*
D02*
X602Y1371D02*
X602Y1308D01*
D02*
X702Y1207D02*
X702Y908D01*
D02*
X602Y1308D02*
X702Y1207D01*
D02*
X702Y908D02*
X602Y708D01*
D02*
X602Y708D02*
X602Y545D01*
D02*
X1102Y409D02*
X1102Y477D01*
D02*
X1602Y1908D02*
X1325Y2185D01*
D02*
X1603Y1908D02*
X1603Y1607D01*
D02*
X1603Y1607D02*
X1602Y1908D01*
D02*
X1603Y1607D02*
X1603Y1908D01*
D02*
X1702Y1409D02*
X1603Y1607D01*
D02*
X1702Y1208D02*
X1702Y1409D01*
D02*
X1702Y1037D02*
X1702Y1208D01*
D02*
X1502Y1807D02*
X1502Y1607D01*
D02*
X1503Y1808D02*
X1502Y1807D01*
D02*
X802Y1308D02*
X729Y1373D01*
D02*
X802Y808D02*
X802Y1308D01*
G04 End of Copper0*
M02*