G04 MADE WITH FRITZING*
G04 WWW.FRITZING.ORG*
G04 DOUBLE SIDED*
G04 HOLES PLATED*
G04 CONTOUR ON CENTER OF CONTOUR VECTOR*
%ASAXBY*%
%FSLAX23Y23*%
%MOIN*%
%OFA0B0*%
%SFA1.0B1.0*%
%ADD10C,0.075000*%
%ADD11C,0.062992*%
%ADD12C,0.074000*%
%ADD13C,0.074667*%
%ADD14C,0.074695*%
%ADD15C,0.075433*%
%ADD16R,0.062992X0.062992*%
%ADD17C,0.032000*%
%LNCOPPER1*%
G90*
G70*
G54D10*
X302Y1584D03*
X702Y1584D03*
G54D11*
X602Y1883D03*
X602Y1784D03*
G54D10*
X1002Y1584D03*
X1402Y1584D03*
G54D11*
X1302Y1883D03*
X1302Y1784D03*
G54D10*
X1702Y1584D03*
X2102Y1584D03*
G54D11*
X2002Y1883D03*
X2002Y1784D03*
G54D10*
X302Y684D03*
X702Y684D03*
G54D11*
X602Y983D03*
X602Y884D03*
G54D10*
X1002Y684D03*
X1402Y684D03*
G54D11*
X1302Y983D03*
X1302Y884D03*
G54D10*
X1702Y684D03*
X2102Y684D03*
G54D11*
X2002Y983D03*
X2002Y884D03*
G54D12*
X902Y1374D03*
X802Y1384D03*
X702Y1374D03*
X602Y1384D03*
X502Y1374D03*
X402Y1384D03*
X1602Y1374D03*
X1502Y1384D03*
X1402Y1374D03*
X1302Y1384D03*
X1202Y1374D03*
X1102Y1384D03*
X2302Y1374D03*
X2202Y1384D03*
X2102Y1374D03*
X2002Y1384D03*
X1902Y1374D03*
X1802Y1384D03*
X902Y474D03*
X802Y484D03*
X702Y474D03*
X602Y484D03*
X502Y474D03*
X402Y484D03*
X1602Y474D03*
X1502Y484D03*
X1402Y474D03*
X1302Y484D03*
X1202Y474D03*
X1102Y484D03*
X2302Y474D03*
X2202Y484D03*
X2102Y474D03*
X2002Y484D03*
X1902Y474D03*
X1802Y484D03*
G54D13*
X402Y2184D03*
X502Y2184D03*
X602Y2184D03*
X702Y2184D03*
G54D14*
X802Y2184D03*
G54D13*
X902Y2184D03*
X1002Y2184D03*
X1102Y2184D03*
X1202Y2184D03*
G54D14*
X1302Y2184D03*
G54D13*
X1402Y2184D03*
G54D14*
X1502Y2184D03*
G54D13*
X1602Y2184D03*
X1702Y2184D03*
X1802Y2184D03*
X1902Y2184D03*
G54D14*
X2002Y2184D03*
G54D13*
X2102Y2184D03*
X2202Y2184D03*
X2302Y2184D03*
X2302Y2284D03*
X2202Y2284D03*
X2102Y2284D03*
G54D14*
X2002Y2284D03*
G54D13*
X1902Y2284D03*
X1802Y2284D03*
X1702Y2284D03*
X1602Y2284D03*
G54D14*
X1502Y2284D03*
G54D13*
X1402Y2284D03*
G54D14*
X1302Y2284D03*
G54D13*
X1202Y2284D03*
X1102Y2284D03*
X1002Y2284D03*
X902Y2284D03*
G54D14*
X802Y2284D03*
G54D13*
X702Y2284D03*
X602Y2284D03*
X502Y2284D03*
X402Y2284D03*
G54D15*
X1402Y1984D03*
X1702Y984D03*
X1102Y1884D03*
G54D16*
X602Y1883D03*
X1302Y1883D03*
X2002Y1883D03*
X602Y983D03*
X1302Y983D03*
X2002Y983D03*
G54D17*
X2102Y1556D02*
X2102Y1405D01*
D02*
X2202Y1883D02*
X2302Y1783D01*
D02*
X2029Y1883D02*
X2202Y1883D01*
D02*
X2302Y1783D02*
X2302Y1405D01*
D02*
X2002Y1984D02*
X1902Y2084D01*
D02*
X1902Y2084D02*
X1102Y2084D01*
D02*
X1102Y2084D02*
X1026Y2161D01*
D02*
X2002Y1910D02*
X2002Y1984D01*
D02*
X1202Y438D02*
X1202Y385D01*
D02*
X600Y285D02*
X501Y385D01*
D02*
X1002Y284D02*
X600Y285D01*
D02*
X1102Y284D02*
X1002Y284D01*
D02*
X501Y385D02*
X502Y443D01*
D02*
X2303Y884D02*
X2203Y984D01*
D02*
X2203Y984D02*
X2029Y983D01*
D02*
X2302Y505D02*
X2303Y884D01*
D02*
X1902Y505D02*
X1902Y584D01*
D02*
X1802Y1284D02*
X1879Y1353D01*
D02*
X1302Y1353D02*
X1302Y1284D01*
D02*
X1302Y1284D02*
X1202Y1184D01*
D02*
X1202Y884D02*
X1302Y784D01*
D02*
X1202Y1184D02*
X1202Y884D01*
D02*
X1302Y784D02*
X1302Y515D01*
D02*
X1802Y684D02*
X1802Y1184D01*
D02*
X1902Y584D02*
X1802Y684D01*
D02*
X1802Y1184D02*
X1802Y1284D01*
D02*
X1271Y1381D02*
X1233Y1377D01*
D02*
X702Y2151D02*
X703Y1984D01*
D02*
X703Y1984D02*
X621Y1902D01*
D02*
X902Y511D02*
X903Y584D01*
D02*
X903Y584D02*
X802Y684D01*
D02*
X802Y684D02*
X802Y884D01*
D02*
X802Y884D02*
X702Y985D01*
D02*
X702Y985D02*
X635Y983D01*
D02*
X1368Y1984D02*
X1002Y1984D01*
D02*
X1002Y1984D02*
X902Y1884D01*
D02*
X902Y1884D02*
X902Y1584D01*
D02*
X1002Y1484D02*
X1002Y1285D01*
D02*
X902Y1584D02*
X1002Y1484D01*
D02*
X1002Y1285D02*
X903Y1185D01*
D02*
X704Y1185D02*
X601Y1085D01*
D02*
X903Y1185D02*
X704Y1185D01*
D02*
X601Y1085D02*
X602Y1010D01*
D02*
X1329Y983D02*
X1601Y986D01*
D02*
X1601Y986D02*
X1674Y985D01*
D02*
X1602Y505D02*
X1601Y986D01*
D02*
X1102Y1855D02*
X1102Y1415D01*
D02*
X1780Y1406D02*
X1702Y1484D01*
D02*
X1702Y1484D02*
X1603Y1484D01*
D02*
X1603Y1484D02*
X1202Y1484D01*
D02*
X1202Y1484D02*
X1103Y1385D01*
D02*
X1103Y1385D02*
X1127Y1403D01*
D02*
X603Y453D02*
X603Y385D01*
D02*
X603Y385D02*
X903Y385D01*
D02*
X1003Y484D02*
X1002Y584D01*
D02*
X1003Y385D02*
X1003Y484D01*
D02*
X903Y385D02*
X1003Y385D01*
D02*
X1002Y584D02*
X902Y684D01*
D02*
X1103Y1184D02*
X1202Y1285D01*
D02*
X902Y1084D02*
X1002Y1184D01*
D02*
X1002Y1184D02*
X1103Y1184D01*
D02*
X902Y684D02*
X902Y1084D01*
D02*
X1202Y1285D02*
X1202Y1343D01*
D02*
X1971Y1384D02*
X1932Y1384D01*
X1932Y1384D02*
X1932Y1384D01*
D02*
X533Y1377D02*
X571Y1381D01*
D02*
X603Y2152D02*
X604Y2083D01*
D02*
X604Y2083D02*
X501Y1984D01*
D02*
X501Y1984D02*
X502Y1785D01*
D02*
X502Y1785D02*
X603Y1684D01*
D02*
X603Y1684D02*
X602Y1415D01*
D02*
X379Y2261D02*
X302Y2185D01*
D02*
X302Y2185D02*
X302Y2084D01*
D02*
X302Y2084D02*
X402Y1984D01*
D02*
X402Y1984D02*
X501Y1984D01*
D02*
X604Y2083D02*
X603Y2152D01*
D02*
X501Y1984D02*
X604Y2083D01*
D02*
X2082Y1604D02*
X2003Y1684D01*
D02*
X2003Y1684D02*
X1802Y1684D01*
D02*
X1802Y1684D02*
X1503Y1684D01*
D02*
X1503Y1684D02*
X1423Y1604D01*
D02*
X802Y1684D02*
X802Y2152D01*
D02*
X723Y1604D02*
X802Y1684D01*
D02*
X1702Y1285D02*
X1302Y1285D01*
D02*
X1302Y1285D02*
X1302Y1353D01*
D02*
X1879Y1354D02*
X1802Y1285D01*
D02*
X1802Y1285D02*
X1702Y1285D01*
D02*
X1971Y481D02*
X1933Y477D01*
D02*
X1202Y385D02*
X1102Y284D01*
G04 End of Copper1*
M02*