; NON-PLATED HOLES START AT T1
; THROUGH (PLATED) HOLES START AT T100
M48
INCH
T1C0.196850
T100C0.041333
T101C0.040000
T102C0.035000
T103C0.035433
T104C0.031497
T105C0.041361
%
T1
X002020Y002079
X025020Y002079
X025020Y023079
T100
X023020Y023079
X011020Y023079
X012020Y023079
X019020Y023079
X010020Y022079
X014020Y023079
X021020Y022079
X010020Y023079
X004020Y022079
X011020Y022079
X005020Y022079
X022020Y023079
X004020Y023079
X009020Y022079
X016020Y022079
X014020Y022079
X012020Y022079
X016020Y023079
X006020Y022079
X019020Y022079
X009020Y023079
X018020Y023079
X022020Y022079
X007020Y022079
X006020Y023079
X007020Y023079
X017020Y023079
X021020Y023079
X018020Y022079
X005020Y023079
X023020Y022079
X017020Y022079
T101
X021020Y004979
X006020Y005079
X023020Y004979
X019020Y013979
X018020Y005079
X013020Y005079
X012020Y013979
X015020Y014079
X022020Y014079
X014020Y013979
X009020Y004979
X023020Y013979
X006020Y014079
X014020Y004979
X012020Y004979
X013020Y014079
X016020Y013979
X005020Y013979
X011020Y014079
X020020Y014079
X022020Y005079
X008020Y005079
X011020Y005079
X005020Y004979
X016020Y004979
X021020Y013979
X020020Y005079
X007020Y013979
X019020Y004979
X007020Y004979
X018020Y014079
X008020Y014079
X015020Y005079
X009020Y013979
X004020Y005079
X004020Y014079
T102
X021020Y007079
X014020Y007079
X003020Y007079
X021020Y016079
X014020Y016079
X010020Y016079
X007020Y016079
X017020Y007079
X017020Y016079
X003020Y016079
X010020Y007079
X007020Y007079
T103
X017020Y010079
X011020Y019079
X014020Y020079
T104
X006020Y010063
X020020Y010063
X013020Y018079
X020020Y009079
X020020Y018079
X020020Y019063
X006020Y009079
X006020Y018079
X013020Y009079
X013020Y019063
X013020Y010063
X006020Y019063
T105
X015020Y023079
X020020Y022079
X013020Y023079
X020020Y023079
X013020Y022079
X015020Y022079
X008020Y022079
X008020Y023079
T00
M30
