; NON-PLATED HOLES START AT T1
; THROUGH (PLATED) HOLES START AT T100
M48
INCH
T100C0.044139
T101C0.040000
T102C0.044111
T103C0.035000
T104C0.035433
T105C0.031497
%
T100
X012850Y022236
X014850Y022236
X007850Y022236
X012850Y021236
X007850Y021236
X019850Y021236
X019850Y022236
X014850Y021236
T101
X019850Y004236
X011850Y013136
X022850Y004136
X012850Y004236
X019850Y013236
X007850Y004236
X018850Y013136
X020850Y004136
X008850Y013136
X013850Y004136
X014850Y004236
X017850Y004236
X015850Y004136
X014850Y013236
X003850Y013236
X005850Y013236
X017850Y013236
X020850Y013136
X012850Y013236
X006850Y004136
X011850Y004136
X021850Y013236
X006850Y013136
X007850Y013236
X021850Y004236
X008850Y004136
X018850Y004136
X003850Y004236
X004850Y013136
X004850Y004136
X015850Y013136
X010850Y004236
X010850Y013236
X005850Y004236
X022850Y013136
X013850Y013136
T102
X017850Y021236
X010850Y021236
X018850Y022236
X015850Y021236
X008850Y022236
X016850Y021236
X009850Y021236
X003850Y022236
X011850Y022236
X004850Y022236
X015850Y022236
X022850Y021236
X008850Y021236
X018850Y021236
X011850Y021236
X021850Y021236
X005850Y021236
X013850Y022236
X009850Y022236
X021850Y022236
X003850Y021236
X013850Y021236
X022850Y022236
X004850Y021236
X016850Y022236
X020850Y021236
X010850Y022236
X020850Y022236
X005850Y022236
X017850Y022236
X006850Y022236
X006850Y021236
T103
X020850Y006236
X020850Y015236
X013850Y006236
X009850Y015236
X002850Y015236
X009850Y006236
X016850Y015236
X006850Y006236
X002850Y006236
X013850Y015236
X016850Y006236
X006850Y015236
T104
X007702Y011968
X004822Y009088
X016342Y018208
X006022Y011488
X017542Y018208
X011782Y010768
T105
X012850Y009220
X005850Y009220
X019850Y009220
X005850Y008236
X019850Y017236
X005850Y017236
X019850Y018220
X012850Y008236
X005850Y018220
X012850Y018220
X012850Y017236
X019850Y008236
T00
M30
