G04 MADE WITH FRITZING*
G04 WWW.FRITZING.ORG*
G04 DOUBLE SIDED*
G04 HOLES PLATED*
G04 CONTOUR ON CENTER OF CONTOUR VECTOR*
%ASAXBY*%
%FSLAX23Y23*%
%MOIN*%
%OFA0B0*%
%SFA1.0B1.0*%
%ADD10C,0.075000*%
%ADD11C,0.062992*%
%ADD12C,0.071889*%
%ADD13C,0.071917*%
%ADD14C,0.074000*%
%ADD15C,0.075433*%
%ADD16R,0.062992X0.062992*%
%ADD17C,0.024000*%
%LNCOPPER0*%
G90*
G70*
G54D10*
X1685Y624D03*
X2085Y624D03*
X285Y624D03*
X685Y624D03*
X985Y624D03*
X1385Y624D03*
X285Y1524D03*
X685Y1524D03*
X1685Y1524D03*
X2085Y1524D03*
X985Y1524D03*
X1385Y1524D03*
G54D11*
X585Y922D03*
X585Y824D03*
X1285Y922D03*
X1285Y824D03*
X1985Y922D03*
X1985Y824D03*
X1985Y1822D03*
X1985Y1724D03*
X1285Y1822D03*
X1285Y1724D03*
X585Y1822D03*
X585Y1724D03*
G54D12*
X385Y2124D03*
X485Y2124D03*
X585Y2124D03*
X685Y2124D03*
G54D13*
X785Y2124D03*
G54D12*
X885Y2124D03*
X985Y2124D03*
X1085Y2124D03*
X1185Y2124D03*
G54D13*
X1285Y2124D03*
G54D12*
X1385Y2124D03*
G54D13*
X1485Y2124D03*
G54D12*
X1585Y2124D03*
X1685Y2124D03*
X1785Y2124D03*
X1885Y2124D03*
G54D13*
X1985Y2124D03*
G54D12*
X2085Y2124D03*
X2185Y2124D03*
X2285Y2124D03*
X2285Y2224D03*
X2185Y2224D03*
X2085Y2224D03*
G54D13*
X1985Y2224D03*
G54D12*
X1885Y2224D03*
X1785Y2224D03*
X1685Y2224D03*
X1585Y2224D03*
G54D13*
X1485Y2224D03*
G54D12*
X1385Y2224D03*
G54D13*
X1285Y2224D03*
G54D12*
X1185Y2224D03*
X1085Y2224D03*
X985Y2224D03*
X885Y2224D03*
G54D13*
X785Y2224D03*
G54D12*
X685Y2224D03*
X585Y2224D03*
X485Y2224D03*
X385Y2224D03*
G54D14*
X885Y1314D03*
X785Y1324D03*
X685Y1314D03*
X585Y1324D03*
X485Y1314D03*
X385Y1324D03*
X1585Y1314D03*
X1485Y1324D03*
X1385Y1314D03*
X1285Y1324D03*
X1185Y1314D03*
X1085Y1324D03*
X2285Y1314D03*
X2185Y1324D03*
X2085Y1314D03*
X1985Y1324D03*
X1885Y1314D03*
X1785Y1324D03*
X885Y414D03*
X785Y424D03*
X685Y414D03*
X585Y424D03*
X485Y414D03*
X385Y424D03*
X1585Y414D03*
X1485Y424D03*
X1385Y414D03*
X1285Y424D03*
X1185Y414D03*
X1085Y424D03*
X2285Y414D03*
X2185Y424D03*
X2085Y414D03*
X1985Y424D03*
X1885Y414D03*
X1785Y424D03*
G54D15*
X1634Y1821D03*
X1754Y1821D03*
X770Y1197D03*
X602Y1149D03*
X482Y909D03*
X1178Y1077D03*
G54D16*
X585Y922D03*
X1285Y922D03*
X1985Y922D03*
X1985Y1822D03*
X1285Y1822D03*
X585Y1822D03*
G54D17*
X2085Y623D02*
X2085Y445D01*
D02*
X2092Y596D02*
X2085Y623D01*
D02*
X1687Y623D02*
X1687Y722D01*
D02*
X1787Y822D02*
X1958Y823D01*
D02*
X1687Y722D02*
X1787Y822D01*
D02*
X1711Y611D02*
X1687Y623D01*
D02*
X986Y623D02*
X986Y722D01*
D02*
X1085Y822D02*
X1258Y823D01*
D02*
X986Y722D02*
X1085Y822D01*
D02*
X1001Y600D02*
X986Y623D01*
D02*
X284Y623D02*
X284Y722D01*
D02*
X384Y822D02*
X558Y823D01*
D02*
X284Y722D02*
X384Y822D01*
D02*
X267Y601D02*
X284Y623D01*
D02*
X687Y424D02*
X685Y595D01*
D02*
X691Y444D02*
X687Y424D01*
D02*
X1384Y424D02*
X1385Y595D01*
D02*
X1382Y445D02*
X1384Y424D01*
D02*
X687Y1523D02*
X713Y1517D01*
D02*
X685Y1345D02*
X687Y1523D01*
D02*
X583Y1722D02*
X562Y1709D01*
D02*
X384Y1722D02*
X583Y1722D01*
D02*
X285Y1552D02*
X284Y1623D01*
D02*
X284Y1623D02*
X384Y1722D01*
D02*
X1085Y1722D02*
X1258Y1723D01*
D02*
X986Y1623D02*
X1085Y1722D01*
D02*
X986Y1523D02*
X986Y1623D01*
D02*
X1008Y1507D02*
X986Y1523D01*
D02*
X1787Y1722D02*
X1958Y1723D01*
D02*
X1687Y1623D02*
X1787Y1722D01*
D02*
X1687Y1523D02*
X1687Y1623D01*
D02*
X1713Y1517D02*
X1687Y1523D01*
D02*
X1484Y1822D02*
X1583Y1722D01*
D02*
X1583Y1722D02*
X1585Y1345D01*
D02*
X1312Y1822D02*
X1484Y1822D01*
D02*
X787Y1822D02*
X886Y1722D01*
D02*
X886Y1722D02*
X885Y1345D01*
D02*
X612Y1822D02*
X787Y1822D01*
D02*
X1385Y652D02*
X1385Y1283D01*
D02*
X1384Y1424D02*
X1385Y1495D01*
D02*
X1385Y1345D02*
X1384Y1424D01*
D02*
X2085Y652D02*
X2085Y1283D01*
D02*
X685Y652D02*
X685Y1283D01*
D02*
X2085Y1025D02*
X2085Y1495D01*
D02*
X2384Y2025D02*
X2384Y1125D01*
D02*
X2384Y1125D02*
X2284Y1025D01*
D02*
X2284Y1025D02*
X2085Y1025D01*
D02*
X2309Y2100D02*
X2384Y2025D01*
D02*
X185Y1921D02*
X185Y1424D01*
D02*
X284Y2025D02*
X185Y1921D01*
D02*
X284Y1324D02*
X354Y1324D01*
D02*
X185Y1424D02*
X284Y1324D01*
D02*
X384Y2025D02*
X284Y2025D01*
D02*
X461Y2101D02*
X384Y2025D01*
D02*
X1085Y224D02*
X1085Y393D01*
D02*
X483Y224D02*
X1085Y224D01*
D02*
X384Y324D02*
X483Y224D01*
D02*
X385Y393D02*
X384Y324D01*
D02*
X909Y2101D02*
X1154Y1869D01*
D02*
X1154Y1869D02*
X1250Y1845D01*
D02*
X1250Y1845D02*
X1263Y1837D01*
D02*
X1102Y2095D02*
X1202Y1929D01*
D02*
X1202Y1929D02*
X1606Y1828D01*
D02*
X1311Y2103D02*
X1586Y1893D01*
D02*
X1586Y1893D02*
X1706Y1893D01*
D02*
X1706Y1893D02*
X1738Y1845D01*
D02*
X1056Y1312D02*
X797Y1208D01*
D02*
X1755Y1316D02*
X1658Y1293D01*
D02*
X1658Y1293D02*
X1514Y477D01*
D02*
X1514Y477D02*
X1634Y477D01*
D02*
X1634Y477D02*
X1658Y453D01*
D02*
X1658Y453D02*
X1658Y189D01*
D02*
X1658Y189D02*
X434Y189D01*
D02*
X434Y189D02*
X338Y285D01*
D02*
X338Y285D02*
X338Y597D01*
D02*
X338Y597D02*
X650Y789D01*
D02*
X650Y789D02*
X650Y1149D01*
D02*
X650Y1149D02*
X631Y1149D01*
D02*
X1756Y434D02*
X1634Y477D01*
D02*
X386Y455D02*
X386Y453D01*
D02*
X386Y453D02*
X338Y597D01*
D02*
X1375Y1284D02*
X1370Y1269D01*
D02*
X1370Y1269D02*
X1346Y1269D01*
D02*
X1346Y1269D02*
X722Y885D01*
D02*
X722Y885D02*
X722Y669D01*
D02*
X722Y669D02*
X698Y669D01*
D02*
X698Y669D02*
X693Y651D01*
D02*
X1279Y454D02*
X1274Y477D01*
D02*
X1274Y477D02*
X1130Y477D01*
D02*
X1130Y477D02*
X1010Y501D01*
D02*
X1010Y501D02*
X938Y357D01*
D02*
X938Y357D02*
X602Y357D01*
D02*
X602Y357D02*
X593Y393D01*
D02*
X1963Y401D02*
X1706Y141D01*
D02*
X1706Y141D02*
X386Y141D01*
D02*
X386Y141D02*
X302Y237D01*
D02*
X302Y237D02*
X218Y573D01*
D02*
X218Y573D02*
X242Y789D01*
D02*
X242Y789D02*
X456Y896D01*
D02*
X578Y1293D02*
X578Y1293D01*
D02*
X578Y1293D02*
X530Y1269D01*
D02*
X530Y1269D02*
X486Y937D01*
D02*
X1207Y1081D02*
X1346Y1101D01*
D02*
X1346Y1101D02*
X1346Y765D01*
D02*
X1346Y765D02*
X1130Y477D01*
D02*
X1990Y1293D02*
X2042Y981D01*
D02*
X2042Y981D02*
X2042Y765D01*
D02*
X2042Y765D02*
X1990Y454D01*
D02*
X363Y2199D02*
X146Y1965D01*
D02*
X146Y1965D02*
X146Y1365D01*
D02*
X146Y1365D02*
X314Y1245D01*
D02*
X314Y1245D02*
X530Y1245D01*
D02*
X530Y1245D02*
X578Y1293D01*
G04 End of Copper0*
M02*