G04 MADE WITH FRITZING*
G04 WWW.FRITZING.ORG*
G04 DOUBLE SIDED*
G04 HOLES PLATED*
G04 CONTOUR ON CENTER OF CONTOUR VECTOR*
%ASAXBY*%
%FSLAX23Y23*%
%MOIN*%
%OFA0B0*%
%SFA1.0B1.0*%
%ADD10C,0.075000*%
%ADD11C,0.062992*%
%ADD12C,0.071889*%
%ADD13C,0.071917*%
%ADD14C,0.074000*%
%ADD15C,0.075433*%
%ADD16R,0.062992X0.062992*%
%ADD17C,0.024000*%
%LNCOPPER1*%
G90*
G70*
G54D10*
X285Y1524D03*
X685Y1524D03*
G54D11*
X585Y1822D03*
X585Y1724D03*
G54D10*
X985Y1524D03*
X1385Y1524D03*
G54D11*
X1285Y1822D03*
X1285Y1724D03*
G54D10*
X1685Y1524D03*
X2085Y1524D03*
G54D11*
X1985Y1822D03*
X1985Y1724D03*
G54D10*
X285Y624D03*
X685Y624D03*
G54D11*
X585Y922D03*
X585Y824D03*
G54D10*
X985Y624D03*
X1385Y624D03*
G54D11*
X1285Y922D03*
X1285Y824D03*
G54D10*
X1685Y624D03*
X2085Y624D03*
G54D11*
X1985Y922D03*
X1985Y824D03*
G54D12*
X385Y2124D03*
X485Y2124D03*
X585Y2124D03*
X685Y2124D03*
G54D13*
X785Y2124D03*
G54D12*
X885Y2124D03*
X985Y2124D03*
X1085Y2124D03*
X1185Y2124D03*
G54D13*
X1285Y2124D03*
G54D12*
X1385Y2124D03*
G54D13*
X1485Y2124D03*
G54D12*
X1585Y2124D03*
X1685Y2124D03*
X1785Y2124D03*
X1885Y2124D03*
G54D13*
X1985Y2124D03*
G54D12*
X2085Y2124D03*
X2185Y2124D03*
X2285Y2124D03*
X2285Y2224D03*
X2185Y2224D03*
X2085Y2224D03*
G54D13*
X1985Y2224D03*
G54D12*
X1885Y2224D03*
X1785Y2224D03*
X1685Y2224D03*
X1585Y2224D03*
G54D13*
X1485Y2224D03*
G54D12*
X1385Y2224D03*
G54D13*
X1285Y2224D03*
G54D12*
X1185Y2224D03*
X1085Y2224D03*
X985Y2224D03*
X885Y2224D03*
G54D13*
X785Y2224D03*
G54D12*
X685Y2224D03*
X585Y2224D03*
X485Y2224D03*
X385Y2224D03*
G54D14*
X885Y1314D03*
X785Y1324D03*
X685Y1314D03*
X585Y1324D03*
X485Y1314D03*
X385Y1324D03*
X1585Y1314D03*
X1485Y1324D03*
X1385Y1314D03*
X1285Y1324D03*
X1185Y1314D03*
X1085Y1324D03*
X2285Y1314D03*
X2185Y1324D03*
X2085Y1314D03*
X1985Y1324D03*
X1885Y1314D03*
X1785Y1324D03*
X885Y414D03*
X785Y424D03*
X685Y414D03*
X585Y424D03*
X485Y414D03*
X385Y424D03*
X1585Y414D03*
X1485Y424D03*
X1385Y414D03*
X1285Y424D03*
X1185Y414D03*
X1085Y424D03*
X2285Y414D03*
X2185Y424D03*
X2085Y414D03*
X1985Y424D03*
X1885Y414D03*
X1785Y424D03*
G54D15*
X1634Y1821D03*
X602Y1149D03*
X770Y1197D03*
X1754Y1821D03*
X1178Y1077D03*
X482Y909D03*
G54D16*
X585Y1822D03*
X1285Y1822D03*
X1985Y1822D03*
X585Y922D03*
X1285Y922D03*
X1985Y922D03*
G54D17*
X2085Y1495D02*
X2085Y1345D01*
D02*
X2185Y1822D02*
X2284Y1722D01*
D02*
X2012Y1822D02*
X2185Y1822D01*
D02*
X2284Y1722D02*
X2285Y1345D01*
D02*
X986Y2025D02*
X985Y2090D01*
D02*
X1886Y1921D02*
X1085Y1921D01*
D02*
X1085Y1921D02*
X986Y2025D01*
D02*
X1966Y1841D02*
X1886Y1921D01*
D02*
X837Y1887D02*
X915Y1484D01*
D02*
X915Y1484D02*
X951Y1460D01*
D02*
X951Y1460D02*
X986Y1125D01*
D02*
X986Y1125D02*
X583Y1025D01*
D02*
X583Y1025D02*
X585Y949D01*
D02*
X1162Y393D02*
X1085Y324D01*
D02*
X986Y224D02*
X583Y224D01*
D02*
X583Y224D02*
X483Y324D01*
D02*
X1085Y324D02*
X986Y224D01*
D02*
X483Y324D02*
X485Y383D01*
D02*
X399Y1445D02*
X303Y1388D01*
D02*
X303Y1388D02*
X303Y1268D01*
D02*
X284Y822D02*
X566Y448D01*
D02*
X303Y1268D02*
X284Y822D01*
D02*
X675Y2092D02*
X594Y1848D01*
D02*
X2005Y940D02*
X2354Y1245D01*
D02*
X2354Y1245D02*
X2318Y1773D01*
D02*
X2318Y1773D02*
X2234Y1869D01*
D02*
X2234Y1869D02*
X1394Y2085D01*
D02*
X1394Y2085D02*
X1393Y2091D01*
D02*
X873Y442D02*
X734Y789D01*
D02*
X734Y789D02*
X602Y885D01*
D02*
X602Y885D02*
X596Y898D01*
D02*
X1609Y1806D02*
X1010Y1461D01*
D02*
X1010Y1461D02*
X1034Y1101D01*
D02*
X1034Y1101D02*
X650Y993D01*
D02*
X650Y993D02*
X614Y957D01*
D02*
X614Y957D02*
X602Y957D01*
D02*
X602Y957D02*
X597Y946D01*
D02*
X1571Y441D02*
X1346Y885D01*
D02*
X1346Y885D02*
X1308Y908D01*
D02*
X2284Y383D02*
X2282Y357D01*
D02*
X2282Y357D02*
X1730Y357D01*
D02*
X1730Y357D02*
X1614Y402D01*
D02*
X1725Y1821D02*
X1706Y1821D01*
D02*
X1706Y1821D02*
X1610Y1485D01*
D02*
X1610Y1485D02*
X1658Y1269D01*
D02*
X1658Y1269D02*
X1634Y1245D01*
D02*
X1634Y1245D02*
X1322Y1245D01*
D02*
X1322Y1245D02*
X1288Y949D01*
D02*
X799Y1197D02*
X938Y1197D01*
D02*
X938Y1197D02*
X410Y1245D01*
D02*
X410Y1245D02*
X395Y1294D01*
D02*
X631Y1153D02*
X938Y1197D01*
D02*
X1162Y1293D02*
X1082Y1221D01*
D02*
X1082Y1221D02*
X1154Y429D01*
D02*
X1154Y429D02*
X1202Y429D01*
D02*
X1202Y429D02*
X1202Y261D01*
D02*
X1202Y261D02*
X1082Y189D01*
D02*
X1082Y189D02*
X530Y189D01*
D02*
X530Y189D02*
X314Y381D01*
D02*
X314Y381D02*
X218Y549D01*
D02*
X218Y549D02*
X266Y1437D01*
D02*
X266Y1437D02*
X338Y1485D01*
D02*
X338Y1485D02*
X626Y1485D01*
D02*
X626Y1485D02*
X505Y1338D01*
D02*
X1867Y1288D02*
X1490Y765D01*
D02*
X1490Y765D02*
X2042Y765D01*
D02*
X2042Y765D02*
X2354Y861D01*
D02*
X2354Y861D02*
X2354Y357D01*
D02*
X2354Y357D02*
X2330Y309D01*
D02*
X2330Y309D02*
X1202Y261D01*
D02*
X558Y2104D02*
X530Y2085D01*
D02*
X530Y2085D02*
X530Y1677D01*
D02*
X530Y1677D02*
X626Y1485D01*
D02*
X1898Y442D02*
X2042Y765D01*
D02*
X1214Y424D02*
X1226Y429D01*
D02*
X1226Y429D02*
X1154Y429D01*
D02*
X780Y2091D02*
X690Y1552D01*
D02*
X490Y881D02*
X602Y453D01*
D02*
X602Y453D02*
X601Y450D01*
D02*
X1273Y1295D02*
X1190Y1103D01*
G04 End of Copper1*
M02*