G04 MADE WITH FRITZING*
G04 WWW.FRITZING.ORG*
G04 DOUBLE SIDED*
G04 HOLES PLATED*
G04 CONTOUR ON CENTER OF CONTOUR VECTOR*
%ASAXBY*%
%FSLAX23Y23*%
%MOIN*%
%OFA0B0*%
%SFA1.0B1.0*%
%ADD10C,0.085000*%
%ADD11C,0.072992*%
%ADD12C,0.081889*%
%ADD13C,0.081917*%
%ADD14C,0.084000*%
%ADD15C,0.085433*%
%ADD16R,0.072992X0.072992*%
%LNMASK0*%
G90*
G70*
G54D10*
X1685Y624D03*
X2085Y624D03*
X285Y624D03*
X685Y624D03*
X985Y624D03*
X1385Y624D03*
X1685Y1524D03*
X2085Y1524D03*
X285Y1524D03*
X685Y1524D03*
X985Y1524D03*
X1385Y1524D03*
G54D11*
X1285Y922D03*
X1285Y824D03*
X585Y922D03*
X585Y824D03*
X585Y1822D03*
X585Y1724D03*
X1285Y1822D03*
X1285Y1724D03*
X1985Y922D03*
X1985Y824D03*
X1985Y1822D03*
X1985Y1724D03*
G54D12*
X385Y2124D03*
X485Y2124D03*
X585Y2124D03*
X685Y2124D03*
G54D13*
X785Y2124D03*
G54D12*
X885Y2124D03*
X985Y2124D03*
X1085Y2124D03*
X1185Y2124D03*
G54D13*
X1285Y2124D03*
G54D12*
X1385Y2124D03*
G54D13*
X1485Y2124D03*
G54D12*
X1585Y2124D03*
X1685Y2124D03*
X1785Y2124D03*
X1885Y2124D03*
G54D13*
X1985Y2124D03*
G54D12*
X2085Y2124D03*
X2185Y2124D03*
X2285Y2124D03*
X2285Y2224D03*
X2185Y2224D03*
X2085Y2224D03*
G54D13*
X1985Y2224D03*
G54D12*
X1885Y2224D03*
X1785Y2224D03*
X1685Y2224D03*
X1585Y2224D03*
G54D13*
X1485Y2224D03*
G54D12*
X1385Y2224D03*
G54D13*
X1285Y2224D03*
G54D12*
X1185Y2224D03*
X1085Y2224D03*
X985Y2224D03*
X885Y2224D03*
G54D13*
X785Y2224D03*
G54D12*
X685Y2224D03*
X585Y2224D03*
X485Y2224D03*
X385Y2224D03*
G54D14*
X885Y1314D03*
X785Y1324D03*
X685Y1314D03*
X585Y1324D03*
X485Y1314D03*
X385Y1324D03*
X1585Y1314D03*
X1485Y1324D03*
X1385Y1314D03*
X1285Y1324D03*
X1185Y1314D03*
X1085Y1324D03*
X2285Y1314D03*
X2185Y1324D03*
X2085Y1314D03*
X1985Y1324D03*
X1885Y1314D03*
X1785Y1324D03*
X885Y414D03*
X785Y424D03*
X685Y414D03*
X585Y424D03*
X485Y414D03*
X385Y424D03*
X1585Y414D03*
X1485Y424D03*
X1385Y414D03*
X1285Y424D03*
X1185Y414D03*
X1085Y424D03*
X2285Y414D03*
X2185Y424D03*
X2085Y414D03*
X1985Y424D03*
X1885Y414D03*
X1785Y424D03*
G54D15*
X1634Y1821D03*
X1754Y1821D03*
X770Y1197D03*
X602Y1149D03*
X482Y909D03*
X1178Y1077D03*
G54D16*
X1285Y922D03*
X585Y922D03*
X585Y1822D03*
X1285Y1822D03*
X1985Y922D03*
X1985Y1822D03*
G04 End of Mask0*
M02*