G04 MADE WITH FRITZING*
G04 WWW.FRITZING.ORG*
G04 DOUBLE SIDED*
G04 HOLES PLATED*
G04 CONTOUR ON CENTER OF CONTOUR VECTOR*
%ASAXBY*%
%FSLAX23Y23*%
%MOIN*%
%OFA0B0*%
%SFA1.0B1.0*%
%ADD10C,0.075000*%
%ADD11C,0.062992*%
%ADD12C,0.074000*%
%ADD13C,0.074667*%
%ADD14C,0.074695*%
%ADD15C,0.075433*%
%ADD16R,0.062992X0.062992*%
%ADD17C,0.032000*%
%LNCOPPER1*%
G90*
G70*
G54D10*
X286Y1568D03*
X686Y1568D03*
G54D11*
X586Y1866D03*
X586Y1768D03*
G54D10*
X986Y1568D03*
X1386Y1568D03*
G54D11*
X1286Y1866D03*
X1286Y1768D03*
G54D10*
X1686Y1568D03*
X2086Y1568D03*
G54D11*
X1986Y1866D03*
X1986Y1768D03*
G54D10*
X286Y668D03*
X686Y668D03*
G54D11*
X586Y966D03*
X586Y868D03*
G54D10*
X986Y668D03*
X1386Y668D03*
G54D11*
X1286Y966D03*
X1286Y868D03*
G54D10*
X1686Y668D03*
X2086Y668D03*
G54D11*
X1986Y966D03*
X1986Y868D03*
G54D12*
X886Y1358D03*
X786Y1368D03*
X686Y1358D03*
X586Y1368D03*
X486Y1358D03*
X386Y1368D03*
X1586Y1358D03*
X1486Y1368D03*
X1386Y1358D03*
X1286Y1368D03*
X1186Y1358D03*
X1086Y1368D03*
X2286Y1358D03*
X2186Y1368D03*
X2086Y1358D03*
X1986Y1368D03*
X1886Y1358D03*
X1786Y1368D03*
X886Y458D03*
X786Y468D03*
X686Y458D03*
X586Y468D03*
X486Y458D03*
X386Y468D03*
X1586Y458D03*
X1486Y468D03*
X1386Y458D03*
X1286Y468D03*
X1186Y458D03*
X1086Y468D03*
X2286Y458D03*
X2186Y468D03*
X2086Y458D03*
X1986Y468D03*
X1886Y458D03*
X1786Y468D03*
G54D13*
X386Y2168D03*
X486Y2168D03*
X586Y2168D03*
X686Y2168D03*
G54D14*
X786Y2168D03*
G54D13*
X886Y2168D03*
X986Y2168D03*
X1086Y2168D03*
X1186Y2168D03*
G54D14*
X1286Y2168D03*
G54D13*
X1386Y2168D03*
G54D14*
X1486Y2168D03*
G54D13*
X1586Y2168D03*
X1686Y2168D03*
X1786Y2168D03*
X1886Y2168D03*
G54D14*
X1986Y2168D03*
G54D13*
X2086Y2168D03*
X2186Y2168D03*
X2286Y2168D03*
X2286Y2268D03*
X2186Y2268D03*
X2086Y2268D03*
G54D14*
X1986Y2268D03*
G54D13*
X1886Y2268D03*
X1786Y2268D03*
X1686Y2268D03*
X1586Y2268D03*
G54D14*
X1486Y2268D03*
G54D13*
X1386Y2268D03*
G54D14*
X1286Y2268D03*
G54D13*
X1186Y2268D03*
X1086Y2268D03*
X986Y2268D03*
X886Y2268D03*
G54D14*
X786Y2268D03*
G54D13*
X686Y2268D03*
X586Y2268D03*
X486Y2268D03*
X386Y2268D03*
G54D15*
X1386Y1968D03*
X1686Y968D03*
X1086Y1868D03*
G54D16*
X586Y1866D03*
X1286Y1866D03*
X1986Y1866D03*
X586Y966D03*
X1286Y966D03*
X1986Y966D03*
G54D17*
X2086Y1539D02*
X2086Y1389D01*
D02*
X2186Y1866D02*
X2285Y1767D01*
D02*
X2013Y1866D02*
X2186Y1866D01*
D02*
X2285Y1767D02*
X2286Y1389D01*
D02*
X1986Y1968D02*
X1886Y2068D01*
D02*
X1886Y2068D02*
X1086Y2068D01*
D02*
X1086Y2068D02*
X1009Y2144D01*
D02*
X1986Y1893D02*
X1986Y1968D01*
D02*
X1186Y421D02*
X1186Y368D01*
D02*
X584Y269D02*
X484Y368D01*
D02*
X985Y267D02*
X584Y269D01*
D02*
X1085Y268D02*
X985Y267D01*
D02*
X484Y368D02*
X485Y427D01*
D02*
X2286Y868D02*
X2186Y968D01*
D02*
X2186Y968D02*
X2013Y967D01*
D02*
X2286Y489D02*
X2286Y868D01*
D02*
X1886Y489D02*
X1886Y567D01*
D02*
X1786Y1268D02*
X1863Y1337D01*
D02*
X1286Y1337D02*
X1286Y1268D01*
D02*
X1286Y1268D02*
X1186Y1168D01*
D02*
X1186Y868D02*
X1286Y768D01*
D02*
X1186Y1168D02*
X1186Y868D01*
D02*
X1286Y768D02*
X1286Y499D01*
D02*
X1786Y1168D02*
X1786Y1268D01*
D02*
X1786Y668D02*
X1786Y1168D01*
D02*
X1886Y567D02*
X1786Y668D01*
D02*
X1255Y1365D02*
X1217Y1361D01*
D02*
X686Y1968D02*
X605Y1885D01*
D02*
X686Y2135D02*
X686Y1968D01*
D02*
X886Y495D02*
X886Y567D01*
D02*
X886Y567D02*
X786Y668D01*
D02*
X786Y668D02*
X786Y868D01*
D02*
X786Y868D02*
X686Y968D01*
D02*
X686Y968D02*
X618Y967D01*
D02*
X985Y1968D02*
X886Y1868D01*
D02*
X1352Y1968D02*
X985Y1968D01*
D02*
X886Y1868D02*
X886Y1568D01*
D02*
X985Y1468D02*
X985Y1268D01*
D02*
X886Y1568D02*
X985Y1468D01*
D02*
X985Y1268D02*
X887Y1169D01*
D02*
X687Y1169D02*
X585Y1069D01*
D02*
X887Y1169D02*
X687Y1169D01*
D02*
X585Y1069D02*
X586Y993D01*
D02*
X1313Y967D02*
X1585Y969D01*
D02*
X1585Y969D02*
X1657Y968D01*
D02*
X1586Y489D02*
X1585Y969D01*
D02*
X1086Y1839D02*
X1086Y1399D01*
D02*
X1764Y1390D02*
X1686Y1468D01*
D02*
X1587Y1468D02*
X1186Y1468D01*
D02*
X1686Y1468D02*
X1587Y1468D01*
D02*
X1186Y1468D02*
X1086Y1368D01*
D02*
X1086Y1368D02*
X1111Y1387D01*
D02*
X586Y437D02*
X587Y368D01*
D02*
X587Y368D02*
X886Y368D01*
D02*
X986Y467D02*
X985Y568D01*
D02*
X986Y368D02*
X986Y467D01*
D02*
X886Y368D02*
X986Y368D01*
D02*
X985Y568D02*
X886Y668D01*
D02*
X886Y1068D02*
X985Y1167D01*
D02*
X1086Y1167D02*
X1186Y1268D01*
D02*
X985Y1167D02*
X1086Y1167D01*
D02*
X886Y668D02*
X886Y1068D01*
D02*
X1186Y1268D02*
X1186Y1327D01*
D02*
X1955Y1368D02*
X1916Y1368D01*
D02*
X1916Y1368D02*
X1916Y1368D01*
D02*
X517Y1361D02*
X555Y1365D01*
D02*
X587Y2067D02*
X485Y1967D01*
D02*
X586Y2136D02*
X587Y2067D01*
D02*
X485Y1967D02*
X486Y1768D01*
D02*
X587Y1667D02*
X586Y1399D01*
D02*
X486Y1768D02*
X587Y1667D01*
D02*
X363Y2244D02*
X286Y2168D01*
D02*
X286Y2168D02*
X286Y2067D01*
D02*
X385Y1967D02*
X485Y1967D01*
D02*
X286Y2067D02*
X385Y1967D01*
D02*
X587Y2067D02*
X586Y2136D01*
D02*
X485Y1967D02*
X587Y2067D01*
D02*
X2066Y1588D02*
X1986Y1667D01*
D02*
X1986Y1667D02*
X1786Y1667D01*
D02*
X1786Y1667D02*
X1487Y1667D01*
D02*
X1487Y1667D02*
X1406Y1588D01*
D02*
X786Y1667D02*
X786Y2136D01*
D02*
X706Y1588D02*
X786Y1667D01*
D02*
X1286Y1268D02*
X1286Y1337D01*
D02*
X1686Y1268D02*
X1286Y1268D01*
D02*
X1786Y1268D02*
X1686Y1268D01*
D02*
X1863Y1337D02*
X1786Y1268D01*
D02*
X1955Y465D02*
X1917Y461D01*
D02*
X1186Y368D02*
X1085Y268D01*
G04 End of Copper1*
M02*