; NON-PLATED HOLES START AT T1
; THROUGH (PLATED) HOLES START AT T100
M48
INCH
T1C0.086614
T100C0.041333
T101C0.040000
T102C0.035000
T103C0.035433
T104C0.031497
T105C0.041361
%
T1
X001860Y022678
X001860Y001678
X024860Y022678
X024860Y001678
T100
X009860Y022678
X013860Y022678
X020860Y021678
X003860Y022678
X006860Y022678
X021860Y021678
X010860Y021678
X010860Y022678
X006860Y021678
X004860Y022678
X016860Y022678
X004860Y021678
X008860Y021678
X009860Y021678
X018860Y022678
X021860Y022678
X015860Y021678
X005860Y021678
X011860Y022678
X008860Y022678
X020860Y022678
X022860Y022678
X017860Y022678
X022860Y021678
X018860Y021678
X003860Y021678
X016860Y021678
X005860Y022678
X017860Y021678
X013860Y021678
X015860Y022678
X011860Y021678
T101
X004860Y004578
X005860Y004678
X012860Y004678
X013860Y013578
X008860Y013578
X014860Y013678
X011860Y004578
X017860Y004678
X020860Y004578
X019860Y004678
X004860Y013578
X006860Y004578
X018860Y013578
X003860Y013678
X014860Y004678
X020860Y013578
X010860Y004678
X019860Y013678
X008860Y004578
X021860Y013678
X003860Y004678
X015860Y004578
X005860Y013678
X022860Y013578
X017860Y013678
X007860Y013678
X022860Y004578
X015860Y013578
X007860Y004678
X013860Y004578
X021860Y004678
X006860Y013578
X012860Y013678
X010860Y013678
X018860Y004578
X011860Y013578
T102
X016860Y006678
X013860Y006678
X009860Y015678
X020860Y015678
X006860Y015678
X020860Y006678
X016860Y015678
X009860Y006678
X013860Y015678
X006860Y006678
X002860Y006678
X002860Y015678
T103
X010860Y018678
X013860Y019678
X016860Y009678
T104
X019860Y017678
X012860Y008678
X005860Y018663
X019860Y009663
X019860Y018663
X005860Y017678
X005860Y008678
X012860Y017678
X012860Y018663
X019860Y008678
X012860Y009663
X005860Y009663
T105
X014860Y021678
X014860Y022678
X019860Y021678
X007860Y021678
X019860Y022678
X007860Y022678
X012860Y022678
X012860Y021678
T00
M30
