G04 MADE WITH FRITZING*
G04 WWW.FRITZING.ORG*
G04 DOUBLE SIDED*
G04 HOLES PLATED*
G04 CONTOUR ON CENTER OF CONTOUR VECTOR*
%ASAXBY*%
%FSLAX23Y23*%
%MOIN*%
%OFA0B0*%
%SFA1.0B1.0*%
%ADD10C,0.075000*%
%ADD11C,0.062992*%
%ADD12C,0.074000*%
%ADD13C,0.075433*%
%ADD14C,0.074667*%
%ADD15C,0.074695*%
%ADD16R,0.062992X0.062992*%
%ADD17C,0.032000*%
%LNCOPPER0*%
G90*
G70*
G54D10*
X1686Y668D03*
X2086Y668D03*
X986Y668D03*
X1386Y668D03*
X286Y668D03*
X686Y668D03*
X986Y1568D03*
X1386Y1568D03*
X286Y1568D03*
X686Y1568D03*
X1686Y1568D03*
X2086Y1568D03*
G54D11*
X1286Y966D03*
X1286Y868D03*
X1986Y966D03*
X1986Y868D03*
X586Y966D03*
X586Y868D03*
X1986Y1866D03*
X1986Y1768D03*
X1286Y1866D03*
X1286Y1768D03*
X586Y1866D03*
X586Y1768D03*
G54D12*
X886Y1358D03*
X786Y1368D03*
X686Y1358D03*
X586Y1368D03*
X486Y1358D03*
X386Y1368D03*
X1586Y1358D03*
X1486Y1368D03*
X1386Y1358D03*
X1286Y1368D03*
X1186Y1358D03*
X1086Y1368D03*
X2286Y1358D03*
X2186Y1368D03*
X2086Y1358D03*
X1986Y1368D03*
X1886Y1358D03*
X1786Y1368D03*
X886Y458D03*
X786Y468D03*
X686Y458D03*
X586Y468D03*
X486Y458D03*
X386Y468D03*
X1586Y458D03*
X1486Y468D03*
X1386Y458D03*
X1286Y468D03*
X1186Y458D03*
X1086Y468D03*
X2286Y458D03*
X2186Y468D03*
X2086Y458D03*
X1986Y468D03*
X1886Y458D03*
X1786Y468D03*
G54D13*
X1386Y1968D03*
X1686Y968D03*
X1086Y1868D03*
G54D14*
X386Y2168D03*
X486Y2168D03*
X586Y2168D03*
X686Y2168D03*
G54D15*
X786Y2168D03*
G54D14*
X886Y2168D03*
X986Y2168D03*
X1086Y2168D03*
X1186Y2168D03*
G54D15*
X1286Y2168D03*
G54D14*
X1386Y2168D03*
G54D15*
X1486Y2168D03*
G54D14*
X1586Y2168D03*
X1686Y2168D03*
X1786Y2168D03*
X1886Y2168D03*
G54D15*
X1986Y2168D03*
G54D14*
X2086Y2168D03*
X2186Y2168D03*
X2286Y2168D03*
X2286Y2268D03*
X2186Y2268D03*
X2086Y2268D03*
G54D15*
X1986Y2268D03*
G54D14*
X1886Y2268D03*
X1786Y2268D03*
X1686Y2268D03*
X1586Y2268D03*
G54D15*
X1486Y2268D03*
G54D14*
X1386Y2268D03*
G54D15*
X1286Y2268D03*
G54D14*
X1186Y2268D03*
X1086Y2268D03*
X986Y2268D03*
X886Y2268D03*
G54D15*
X786Y2268D03*
G54D14*
X686Y2268D03*
X586Y2268D03*
X486Y2268D03*
X386Y2268D03*
G54D16*
X1286Y966D03*
X1986Y966D03*
X586Y966D03*
X1986Y1866D03*
X1286Y1866D03*
X586Y1866D03*
G54D17*
X2086Y667D02*
X2086Y489D01*
D02*
X2093Y640D02*
X2086Y667D01*
D02*
X1688Y767D02*
X1788Y866D01*
D02*
X1688Y667D02*
X1688Y767D01*
D02*
X1788Y866D02*
X1959Y868D01*
D02*
X1712Y656D02*
X1688Y667D01*
D02*
X1086Y866D02*
X1259Y868D01*
D02*
X987Y667D02*
X987Y767D01*
D02*
X987Y767D02*
X1086Y866D01*
D02*
X1002Y644D02*
X987Y667D01*
D02*
X385Y866D02*
X559Y868D01*
D02*
X285Y767D02*
X385Y866D01*
D02*
X285Y667D02*
X285Y767D01*
D02*
X268Y646D02*
X285Y667D01*
D02*
X688Y468D02*
X686Y639D01*
D02*
X692Y488D02*
X688Y468D01*
D02*
X1385Y468D02*
X1386Y639D01*
D02*
X1383Y489D02*
X1385Y468D01*
D02*
X688Y1567D02*
X714Y1562D01*
D02*
X686Y1389D02*
X688Y1567D01*
D02*
X584Y1767D02*
X563Y1754D01*
D02*
X285Y1667D02*
X385Y1767D01*
D02*
X385Y1767D02*
X584Y1767D01*
D02*
X286Y1596D02*
X285Y1667D01*
D02*
X987Y1567D02*
X987Y1667D01*
D02*
X1086Y1767D02*
X1259Y1768D01*
D02*
X987Y1667D02*
X1086Y1767D01*
D02*
X1009Y1551D02*
X987Y1567D01*
D02*
X1688Y1667D02*
X1788Y1767D01*
D02*
X1788Y1767D02*
X1959Y1768D01*
D02*
X1688Y1567D02*
X1688Y1667D01*
D02*
X1714Y1562D02*
X1688Y1567D01*
D02*
X1486Y1567D02*
X1570Y1391D01*
D02*
X1386Y1868D02*
X1487Y1768D01*
D02*
X1313Y1867D02*
X1386Y1868D01*
D02*
X887Y1767D02*
X886Y1389D01*
D02*
X787Y1866D02*
X887Y1767D01*
D02*
X613Y1866D02*
X787Y1866D01*
D02*
X1386Y696D02*
X1386Y1327D01*
D02*
X1385Y1468D02*
X1386Y1539D01*
D02*
X1386Y1389D02*
X1385Y1468D01*
D02*
X2086Y696D02*
X2086Y1327D01*
D02*
X710Y692D02*
X786Y768D01*
D02*
X2086Y1070D02*
X2086Y1539D01*
D02*
X2385Y1169D02*
X2285Y1070D01*
D02*
X2385Y2070D02*
X2385Y1169D01*
D02*
X2310Y2145D02*
X2385Y2070D01*
D02*
X2285Y1070D02*
X2086Y1070D01*
D02*
X286Y1468D02*
X364Y1390D01*
D02*
X186Y1966D02*
X187Y1567D01*
D02*
X187Y1567D02*
X286Y1468D01*
D02*
X285Y2070D02*
X186Y1966D01*
D02*
X385Y2070D02*
X285Y2070D01*
D02*
X462Y2145D02*
X385Y2070D01*
D02*
X985Y267D02*
X1086Y368D01*
D02*
X484Y269D02*
X985Y267D01*
D02*
X385Y368D02*
X484Y269D01*
D02*
X386Y437D02*
X385Y368D01*
D02*
X1086Y1968D02*
X1186Y1967D01*
D02*
X910Y2144D02*
X1086Y1968D01*
D02*
X1186Y1967D02*
X1263Y1889D01*
D02*
X1112Y2141D02*
X1286Y1967D01*
D02*
X1286Y1967D02*
X1352Y1968D01*
D02*
X1318Y2168D02*
X1354Y2168D01*
D02*
X1959Y966D02*
X1715Y968D01*
D02*
X509Y2144D02*
X587Y2067D01*
D02*
X587Y2067D02*
X886Y2067D01*
D02*
X886Y2067D02*
X1066Y1888D01*
D02*
X355Y468D02*
X186Y468D01*
D02*
X186Y468D02*
X186Y568D01*
D02*
X186Y568D02*
X187Y1167D01*
D02*
X187Y1167D02*
X286Y1270D01*
D02*
X286Y1270D02*
X364Y1346D01*
D02*
X1769Y442D02*
X1586Y168D01*
D02*
X1586Y168D02*
X386Y168D01*
D02*
X386Y168D02*
X186Y368D01*
D02*
X186Y368D02*
X186Y468D01*
D02*
X186Y468D02*
X355Y468D01*
D02*
X1217Y461D02*
X1255Y465D01*
D02*
X586Y1331D02*
X586Y1267D01*
D02*
X686Y1167D02*
X686Y868D01*
D02*
X586Y1267D02*
X686Y1167D01*
D02*
X686Y868D02*
X586Y668D01*
D02*
X586Y668D02*
X586Y505D01*
D02*
X1086Y368D02*
X1086Y437D01*
D02*
X1586Y1868D02*
X1309Y2145D01*
D02*
X1587Y1868D02*
X1587Y1567D01*
D02*
X1587Y1567D02*
X1586Y1868D01*
D02*
X1587Y1567D02*
X1587Y1868D01*
D02*
X1686Y1369D02*
X1587Y1567D01*
D02*
X1686Y1167D02*
X1686Y1369D01*
D02*
X1686Y997D02*
X1686Y1167D01*
D02*
X1486Y1767D02*
X1486Y1567D01*
D02*
X1487Y1768D02*
X1486Y1767D01*
D02*
X786Y1267D02*
X713Y1333D01*
D02*
X786Y768D02*
X786Y1267D01*
G04 End of Copper0*
M02*