G04 MADE WITH FRITZING*
G04 WWW.FRITZING.ORG*
G04 DOUBLE SIDED*
G04 HOLES PLATED*
G04 CONTOUR ON CENTER OF CONTOUR VECTOR*
%ASAXBY*%
%FSLAX23Y23*%
%MOIN*%
%OFA0B0*%
%SFA1.0B1.0*%
%ADD10C,0.085000*%
%ADD11C,0.072992*%
%ADD12C,0.081889*%
%ADD13C,0.081917*%
%ADD14C,0.084000*%
%ADD15C,0.085433*%
%ADD16R,0.072992X0.072992*%
%LNMASK1*%
G90*
G70*
G54D10*
X302Y1584D03*
X702Y1584D03*
G54D11*
X602Y1883D03*
X602Y1784D03*
G54D10*
X1002Y1584D03*
X1402Y1584D03*
G54D11*
X1302Y1883D03*
X1302Y1784D03*
G54D10*
X1702Y1584D03*
X2102Y1584D03*
G54D11*
X2002Y1883D03*
X2002Y1784D03*
G54D10*
X302Y684D03*
X702Y684D03*
G54D11*
X602Y983D03*
X602Y884D03*
G54D10*
X1002Y684D03*
X1402Y684D03*
G54D11*
X1302Y983D03*
X1302Y884D03*
G54D10*
X1702Y684D03*
X2102Y684D03*
G54D11*
X2002Y983D03*
X2002Y884D03*
G54D12*
X402Y2184D03*
X502Y2184D03*
X602Y2184D03*
X702Y2184D03*
G54D13*
X802Y2184D03*
G54D12*
X902Y2184D03*
X1002Y2184D03*
X1102Y2184D03*
X1202Y2184D03*
G54D13*
X1302Y2184D03*
G54D12*
X1402Y2184D03*
G54D13*
X1502Y2184D03*
G54D12*
X1602Y2184D03*
X1702Y2184D03*
X1802Y2184D03*
X1902Y2184D03*
G54D13*
X2002Y2184D03*
G54D12*
X2102Y2184D03*
X2202Y2184D03*
X2302Y2184D03*
X2302Y2284D03*
X2202Y2284D03*
X2102Y2284D03*
G54D13*
X2002Y2284D03*
G54D12*
X1902Y2284D03*
X1802Y2284D03*
X1702Y2284D03*
X1602Y2284D03*
G54D13*
X1502Y2284D03*
G54D12*
X1402Y2284D03*
G54D13*
X1302Y2284D03*
G54D12*
X1202Y2284D03*
X1102Y2284D03*
X1002Y2284D03*
X902Y2284D03*
G54D13*
X802Y2284D03*
G54D12*
X702Y2284D03*
X602Y2284D03*
X502Y2284D03*
X402Y2284D03*
G54D14*
X902Y1374D03*
X802Y1384D03*
X702Y1374D03*
X602Y1384D03*
X502Y1374D03*
X402Y1384D03*
X1602Y1374D03*
X1502Y1384D03*
X1402Y1374D03*
X1302Y1384D03*
X1202Y1374D03*
X1102Y1384D03*
X2302Y1374D03*
X2202Y1384D03*
X2102Y1374D03*
X2002Y1384D03*
X1902Y1374D03*
X1802Y1384D03*
X902Y474D03*
X802Y484D03*
X702Y474D03*
X602Y484D03*
X502Y474D03*
X402Y484D03*
X1602Y474D03*
X1502Y484D03*
X1402Y474D03*
X1302Y484D03*
X1202Y474D03*
X1102Y484D03*
X2302Y474D03*
X2202Y484D03*
X2102Y474D03*
X2002Y484D03*
X1902Y474D03*
X1802Y484D03*
G54D15*
X1702Y984D03*
X1102Y1884D03*
X1302Y1984D03*
G54D16*
X602Y1883D03*
X1302Y1883D03*
X2002Y1883D03*
X602Y983D03*
X1302Y983D03*
X2002Y983D03*
G04 End of Mask1*
M02*