G04 MADE WITH FRITZING*
G04 WWW.FRITZING.ORG*
G04 DOUBLE SIDED*
G04 HOLES PLATED*
G04 CONTOUR ON CENTER OF CONTOUR VECTOR*
%ASAXBY*%
%FSLAX23Y23*%
%MOIN*%
%OFA0B0*%
%SFA1.0B1.0*%
%ADD10C,0.075000*%
%ADD11C,0.062992*%
%ADD12C,0.071889*%
%ADD13C,0.071917*%
%ADD14C,0.074000*%
%ADD15C,0.075433*%
%ADD16R,0.062992X0.062992*%
%ADD17C,0.024000*%
%LNCOPPER0*%
G90*
G70*
G54D10*
X1702Y684D03*
X2102Y684D03*
X1002Y684D03*
X1402Y684D03*
X302Y684D03*
X702Y684D03*
X1002Y1584D03*
X1402Y1584D03*
X302Y1584D03*
X702Y1584D03*
X1702Y1584D03*
X2102Y1584D03*
G54D11*
X1302Y983D03*
X1302Y884D03*
X2002Y983D03*
X2002Y884D03*
X602Y983D03*
X602Y884D03*
X2002Y1883D03*
X2002Y1784D03*
X1302Y1883D03*
X1302Y1784D03*
X602Y1883D03*
X602Y1784D03*
G54D12*
X402Y2184D03*
X502Y2184D03*
X602Y2184D03*
X702Y2184D03*
G54D13*
X802Y2184D03*
G54D12*
X902Y2184D03*
X1002Y2184D03*
X1102Y2184D03*
X1202Y2184D03*
G54D13*
X1302Y2184D03*
G54D12*
X1402Y2184D03*
G54D13*
X1502Y2184D03*
G54D12*
X1602Y2184D03*
X1702Y2184D03*
X1802Y2184D03*
X1902Y2184D03*
G54D13*
X2002Y2184D03*
G54D12*
X2102Y2184D03*
X2202Y2184D03*
X2302Y2184D03*
X2302Y2284D03*
X2202Y2284D03*
X2102Y2284D03*
G54D13*
X2002Y2284D03*
G54D12*
X1902Y2284D03*
X1802Y2284D03*
X1702Y2284D03*
X1602Y2284D03*
G54D13*
X1502Y2284D03*
G54D12*
X1402Y2284D03*
G54D13*
X1302Y2284D03*
G54D12*
X1202Y2284D03*
X1102Y2284D03*
X1002Y2284D03*
X902Y2284D03*
G54D13*
X802Y2284D03*
G54D12*
X702Y2284D03*
X602Y2284D03*
X502Y2284D03*
X402Y2284D03*
G54D14*
X902Y1374D03*
X802Y1384D03*
X702Y1374D03*
X602Y1384D03*
X502Y1374D03*
X402Y1384D03*
X1602Y1374D03*
X1502Y1384D03*
X1402Y1374D03*
X1302Y1384D03*
X1202Y1374D03*
X1102Y1384D03*
X2302Y1374D03*
X2202Y1384D03*
X2102Y1374D03*
X2002Y1384D03*
X1902Y1374D03*
X1802Y1384D03*
X902Y474D03*
X802Y484D03*
X702Y474D03*
X602Y484D03*
X502Y474D03*
X402Y484D03*
X1602Y474D03*
X1502Y484D03*
X1402Y474D03*
X1302Y484D03*
X1202Y474D03*
X1102Y484D03*
X2302Y474D03*
X2202Y484D03*
X2102Y474D03*
X2002Y484D03*
X1902Y474D03*
X1802Y484D03*
G54D15*
X1302Y1984D03*
X1702Y984D03*
X1102Y1884D03*
G54D16*
X1302Y983D03*
X2002Y983D03*
X602Y983D03*
X2002Y1883D03*
X1302Y1883D03*
X602Y1883D03*
G54D17*
X2103Y683D02*
X2102Y505D01*
D02*
X2109Y656D02*
X2103Y683D01*
D02*
X1704Y783D02*
X1804Y882D01*
D02*
X1704Y683D02*
X1704Y783D01*
D02*
X1804Y882D02*
X1976Y884D01*
D02*
X1728Y672D02*
X1704Y683D01*
D02*
X1103Y882D02*
X1276Y884D01*
D02*
X1003Y683D02*
X1003Y783D01*
D02*
X1003Y783D02*
X1103Y882D01*
D02*
X1018Y660D02*
X1003Y683D01*
D02*
X401Y882D02*
X576Y884D01*
D02*
X302Y783D02*
X401Y882D01*
D02*
X302Y683D02*
X302Y783D01*
D02*
X284Y662D02*
X302Y683D01*
D02*
X704Y484D02*
X703Y656D01*
D02*
X708Y505D02*
X704Y484D01*
D02*
X1401Y484D02*
X1402Y656D01*
D02*
X1399Y505D02*
X1401Y484D01*
D02*
X704Y1584D02*
X730Y1578D01*
D02*
X703Y1405D02*
X704Y1584D01*
D02*
X600Y1783D02*
X580Y1770D01*
D02*
X302Y1683D02*
X401Y1783D01*
D02*
X401Y1783D02*
X600Y1783D01*
D02*
X302Y1613D02*
X302Y1683D01*
D02*
X1003Y1584D02*
X1003Y1683D01*
D02*
X1103Y1783D02*
X1276Y1784D01*
D02*
X1003Y1683D02*
X1103Y1783D01*
D02*
X1026Y1567D02*
X1003Y1584D01*
D02*
X1704Y1683D02*
X1804Y1783D01*
D02*
X1804Y1783D02*
X1976Y1784D01*
D02*
X1704Y1584D02*
X1704Y1683D01*
D02*
X1730Y1578D02*
X1704Y1584D01*
D02*
X1503Y1484D02*
X1582Y1397D01*
D02*
X1402Y1884D02*
X1503Y1785D01*
D02*
X1329Y1883D02*
X1402Y1884D01*
D02*
X903Y1783D02*
X902Y1405D01*
D02*
X804Y1883D02*
X903Y1783D01*
D02*
X629Y1883D02*
X804Y1883D01*
D02*
X1402Y713D02*
X1402Y1343D01*
D02*
X1401Y1484D02*
X1402Y1556D01*
D02*
X1402Y1405D02*
X1401Y1484D01*
D02*
X2102Y713D02*
X2102Y1343D01*
D02*
X702Y713D02*
X702Y1343D01*
D02*
X2103Y1086D02*
X2102Y1556D01*
D02*
X2401Y1186D02*
X2302Y1086D01*
D02*
X2401Y2086D02*
X2401Y1186D01*
D02*
X2326Y2161D02*
X2401Y2086D01*
D02*
X2302Y1086D02*
X2103Y1086D01*
D02*
X302Y1385D02*
X371Y1384D01*
D02*
X202Y1982D02*
X202Y1484D01*
D02*
X202Y1484D02*
X302Y1385D01*
D02*
X302Y2086D02*
X202Y1982D01*
D02*
X401Y2086D02*
X302Y2086D01*
D02*
X479Y2161D02*
X401Y2086D01*
D02*
X1002Y284D02*
X1103Y385D01*
D02*
X501Y285D02*
X1002Y284D01*
D02*
X401Y385D02*
X501Y285D01*
D02*
X402Y453D02*
X401Y385D01*
D02*
X1103Y1984D02*
X1202Y1984D01*
D02*
X926Y2161D02*
X1103Y1984D01*
D02*
X1202Y1984D02*
X1284Y1902D01*
D02*
X1126Y2161D02*
X1302Y1984D01*
D02*
X1302Y1984D02*
X1279Y1967D01*
D02*
X1336Y2184D02*
X1369Y2184D01*
D02*
X1976Y983D02*
X1731Y984D01*
D02*
X526Y2161D02*
X603Y2084D01*
D02*
X902Y2084D02*
X1082Y1905D01*
D02*
X603Y2084D02*
X902Y2084D01*
D02*
X371Y484D02*
X203Y485D01*
D02*
X203Y485D02*
X203Y584D01*
D02*
X203Y584D02*
X203Y1285D01*
D02*
X203Y1285D02*
X302Y1385D01*
D02*
X302Y1385D02*
X371Y1384D01*
D02*
X1785Y458D02*
X1603Y184D01*
D02*
X1603Y184D02*
X402Y184D01*
D02*
X402Y184D02*
X203Y385D01*
D02*
X203Y385D02*
X203Y485D01*
D02*
X203Y485D02*
X371Y484D01*
D02*
X1233Y477D02*
X1271Y481D01*
D02*
X618Y1358D02*
X660Y1288D01*
X660Y1288D02*
X660Y808D01*
X660Y808D02*
X602Y684D01*
D02*
X602Y684D02*
X602Y515D01*
D02*
X1103Y385D02*
X1103Y453D01*
D02*
X1603Y1884D02*
X1326Y2161D01*
D02*
X1603Y1484D02*
X1603Y1884D01*
D02*
X1702Y1385D02*
X1603Y1484D01*
D02*
X1702Y1184D02*
X1702Y1385D01*
D02*
X1702Y1013D02*
X1702Y1184D01*
D02*
X1503Y1785D02*
X1503Y1484D01*
G04 End of Copper0*
M02*