; NON-PLATED HOLES START AT T1
; THROUGH (PLATED) HOLES START AT T100
M48
INCH
T100C0.044139
T101C0.040000
T102C0.044111
T103C0.035000
T104C0.035433
T105C0.031497
%
T100
X020023Y022842
X013023Y022842
X015023Y021842
X008023Y022842
X013023Y021842
X020023Y021842
X008023Y021842
X015023Y022842
T101
X012023Y004742
X018023Y004842
X018023Y013842
X022023Y013842
X019023Y013742
X008023Y004842
X021023Y013742
X015023Y013842
X013023Y004842
X013023Y013842
X011023Y013842
X016023Y004742
X023023Y004742
X021023Y004742
X022023Y004842
X015023Y004842
X020023Y004842
X012023Y013742
X005023Y004742
X004023Y013842
X020023Y013842
X011023Y004842
X014023Y004742
X007023Y013742
X023023Y013742
X005023Y013742
X006023Y013842
X009023Y004742
X019023Y004742
X007023Y004742
X014023Y013742
X008023Y013842
X009023Y013742
X004023Y004842
X006023Y004842
X016023Y013742
T102
X005023Y021842
X018023Y022842
X011023Y021842
X022023Y022842
X012023Y021842
X007023Y022842
X023023Y022842
X019023Y021842
X016023Y022842
X023023Y021842
X007023Y021842
X005023Y022842
X009023Y022842
X014023Y022842
X012023Y022842
X017023Y021842
X021023Y022842
X016023Y021842
X021023Y021842
X006023Y022842
X004023Y022842
X019023Y022842
X004023Y021842
X014023Y021842
X006023Y021842
X009023Y021842
X022023Y021842
X010023Y022842
X017023Y022842
X010023Y021842
X011023Y022842
X018023Y021842
T103
X014023Y015842
X010023Y006842
X021023Y006842
X017023Y006842
X007023Y006842
X003023Y015842
X010023Y015842
X021023Y015842
X003023Y006842
X017023Y015842
X007023Y015842
X014023Y006842
T104
X017023Y009842
X013023Y019842
X011023Y018842
T105
X006023Y009826
X006023Y017842
X020023Y018826
X013023Y017842
X020023Y009826
X020023Y017842
X006023Y018826
X006023Y008842
X013023Y009826
X013023Y018826
X013023Y008842
X020023Y008842
T00
M30
