G04 MADE WITH FRITZING*
G04 WWW.FRITZING.ORG*
G04 DOUBLE SIDED*
G04 HOLES PLATED*
G04 CONTOUR ON CENTER OF CONTOUR VECTOR*
%ASAXBY*%
%FSLAX23Y23*%
%MOIN*%
%OFA0B0*%
%SFA1.0B1.0*%
%ADD10C,0.075000*%
%ADD11C,0.062992*%
%ADD12C,0.074000*%
%ADD13C,0.074667*%
%ADD14C,0.074695*%
%ADD15C,0.075433*%
%ADD16R,0.062992X0.062992*%
%ADD17C,0.048000*%
%LNCOPPER1*%
G90*
G70*
G54D10*
X302Y1608D03*
X702Y1608D03*
G54D11*
X602Y1906D03*
X602Y1808D03*
G54D10*
X1002Y1608D03*
X1402Y1608D03*
G54D11*
X1302Y1906D03*
X1302Y1808D03*
G54D10*
X1702Y1608D03*
X2102Y1608D03*
G54D11*
X2002Y1906D03*
X2002Y1808D03*
G54D10*
X302Y708D03*
X702Y708D03*
G54D11*
X602Y1006D03*
X602Y908D03*
G54D10*
X1002Y708D03*
X1402Y708D03*
G54D11*
X1302Y1006D03*
X1302Y908D03*
G54D10*
X1702Y708D03*
X2102Y708D03*
G54D11*
X2002Y1006D03*
X2002Y908D03*
G54D12*
X902Y1398D03*
X802Y1408D03*
X702Y1398D03*
X602Y1408D03*
X502Y1398D03*
X402Y1408D03*
X1602Y1398D03*
X1502Y1408D03*
X1402Y1398D03*
X1302Y1408D03*
X1202Y1398D03*
X1102Y1408D03*
X2302Y1398D03*
X2202Y1408D03*
X2102Y1398D03*
X2002Y1408D03*
X1902Y1398D03*
X1802Y1408D03*
X902Y498D03*
X802Y508D03*
X702Y498D03*
X602Y508D03*
X502Y498D03*
X402Y508D03*
X1602Y498D03*
X1502Y508D03*
X1402Y498D03*
X1302Y508D03*
X1202Y498D03*
X1102Y508D03*
X2302Y498D03*
X2202Y508D03*
X2102Y498D03*
X2002Y508D03*
X1902Y498D03*
X1802Y508D03*
G54D13*
X402Y2208D03*
X502Y2208D03*
X602Y2208D03*
X702Y2208D03*
G54D14*
X802Y2208D03*
G54D13*
X902Y2208D03*
X1002Y2208D03*
X1102Y2208D03*
X1202Y2208D03*
G54D14*
X1302Y2208D03*
G54D13*
X1402Y2208D03*
G54D14*
X1502Y2208D03*
G54D13*
X1602Y2208D03*
X1702Y2208D03*
X1802Y2208D03*
X1902Y2208D03*
G54D14*
X2002Y2208D03*
G54D13*
X2102Y2208D03*
X2202Y2208D03*
X2302Y2208D03*
X2302Y2308D03*
X2202Y2308D03*
X2102Y2308D03*
G54D14*
X2002Y2308D03*
G54D13*
X1902Y2308D03*
X1802Y2308D03*
X1702Y2308D03*
X1602Y2308D03*
G54D14*
X1502Y2308D03*
G54D13*
X1402Y2308D03*
G54D14*
X1302Y2308D03*
G54D13*
X1202Y2308D03*
X1102Y2308D03*
X1002Y2308D03*
X902Y2308D03*
G54D14*
X802Y2308D03*
G54D13*
X702Y2308D03*
X602Y2308D03*
X502Y2308D03*
X402Y2308D03*
G54D15*
X1402Y2008D03*
X1702Y1008D03*
X1102Y1908D03*
G54D16*
X602Y1906D03*
X1302Y1906D03*
X2002Y1906D03*
X602Y1006D03*
X1302Y1006D03*
X2002Y1006D03*
G54D17*
X2102Y1579D02*
X2102Y1429D01*
D02*
X2202Y1906D02*
X2301Y1807D01*
D02*
X2029Y1906D02*
X2202Y1906D01*
D02*
X2301Y1807D02*
X2302Y1429D01*
D02*
X2002Y2008D02*
X1902Y2108D01*
D02*
X1902Y2108D02*
X1102Y2108D01*
D02*
X1002Y2109D02*
X1002Y2165D01*
D02*
X1102Y2108D02*
X1002Y2109D01*
D02*
X2002Y1933D02*
X2002Y2008D01*
D02*
X1202Y461D02*
X1202Y408D01*
D02*
X600Y309D02*
X500Y408D01*
D02*
X1001Y308D02*
X600Y309D01*
D02*
X1101Y308D02*
X1001Y308D01*
D02*
X500Y408D02*
X502Y467D01*
D02*
X2302Y908D02*
X2202Y1008D01*
D02*
X2202Y1008D02*
X2029Y1007D01*
D02*
X2302Y529D02*
X2302Y908D01*
D02*
X1902Y529D02*
X1902Y608D01*
D02*
X1903Y1309D02*
X1902Y1356D01*
D02*
X1302Y1377D02*
X1302Y1308D01*
D02*
X1302Y1308D02*
X1202Y1208D01*
D02*
X1202Y908D02*
X1302Y808D01*
D02*
X1202Y1208D02*
X1202Y908D01*
D02*
X1302Y808D02*
X1302Y539D01*
D02*
X1802Y1208D02*
X1903Y1309D01*
D02*
X1802Y708D02*
X1802Y1208D01*
D02*
X1902Y608D02*
X1802Y708D01*
D02*
X1271Y1405D02*
X1233Y1401D01*
D02*
X702Y2008D02*
X621Y1925D01*
D02*
X702Y2175D02*
X702Y2008D01*
D02*
X902Y535D02*
X902Y607D01*
D02*
X902Y607D02*
X802Y708D01*
D02*
X802Y708D02*
X802Y908D01*
D02*
X802Y908D02*
X702Y1008D01*
D02*
X702Y1008D02*
X634Y1007D01*
D02*
X1001Y2008D02*
X902Y1908D01*
D02*
X1368Y2008D02*
X1001Y2008D01*
D02*
X902Y1908D02*
X902Y1508D01*
D02*
X1001Y1508D02*
X1001Y1308D01*
D02*
X902Y1508D02*
X1001Y1508D01*
D02*
X1001Y1308D02*
X903Y1209D01*
D02*
X703Y1209D02*
X601Y1109D01*
D02*
X903Y1209D02*
X703Y1209D01*
D02*
X601Y1109D02*
X602Y1033D01*
D02*
X1329Y1007D02*
X1601Y1009D01*
D02*
X1601Y1009D02*
X1673Y1008D01*
D02*
X1602Y529D02*
X1601Y1009D01*
D02*
X1102Y1879D02*
X1102Y1439D01*
D02*
X1780Y1430D02*
X1702Y1508D01*
D02*
X1603Y1508D02*
X1202Y1508D01*
D02*
X1702Y1508D02*
X1603Y1508D01*
D02*
X1202Y1508D02*
X1102Y1408D01*
D02*
X1102Y1408D02*
X1127Y1427D01*
D02*
X602Y477D02*
X603Y409D01*
D02*
X603Y409D02*
X902Y408D01*
D02*
X1003Y507D02*
X1001Y608D01*
D02*
X1003Y408D02*
X1003Y507D01*
D02*
X902Y408D02*
X1003Y408D01*
D02*
X1001Y608D02*
X1102Y608D01*
D02*
X1102Y1208D02*
X1202Y1308D01*
D02*
X1102Y1109D02*
X1102Y1208D01*
D02*
X1102Y1208D02*
X1102Y1208D01*
D02*
X1102Y608D02*
X1102Y1109D01*
D02*
X1202Y1308D02*
X1202Y1367D01*
D02*
X1971Y1408D02*
X1932Y1408D01*
D02*
X1932Y1408D02*
X1932Y1408D01*
D02*
X533Y1401D02*
X571Y1405D01*
D02*
X603Y2107D02*
X501Y2007D01*
D02*
X602Y2176D02*
X603Y2107D01*
D02*
X501Y2007D02*
X502Y1808D01*
D02*
X603Y1707D02*
X602Y1439D01*
D02*
X502Y1808D02*
X603Y1707D01*
D02*
X359Y2308D02*
X301Y2308D01*
D02*
X301Y2308D02*
X202Y2207D01*
D02*
X202Y2207D02*
X202Y2108D01*
D02*
X301Y2007D02*
X501Y2007D01*
D02*
X202Y2108D02*
X301Y2007D01*
D02*
X603Y2107D02*
X602Y2176D01*
D02*
X501Y2007D02*
X603Y2107D01*
D02*
X2082Y1628D02*
X2002Y1707D01*
D02*
X2002Y1707D02*
X1802Y1707D01*
D02*
X1802Y1707D02*
X1503Y1707D01*
D02*
X1503Y1707D02*
X1422Y1628D01*
D02*
X802Y1707D02*
X802Y2176D01*
D02*
X722Y1628D02*
X802Y1707D01*
D02*
X1302Y1308D02*
X1302Y1377D01*
D02*
X1702Y1308D02*
X1302Y1308D01*
D02*
X1903Y1309D02*
X1702Y1308D01*
D02*
X1902Y1356D02*
X1903Y1309D01*
D02*
X1971Y505D02*
X1933Y501D01*
D02*
X1202Y408D02*
X1101Y308D01*
G04 End of Copper1*
M02*